<svg width="180" height="48" viewBox="0 0 180 48" fill="none" xmlns="http://www.w3.org/2000/svg">
  <path d="M42.5 24C42.5 34.2173 34.2173 42.5 24 42.5C13.7827 42.5 5.5 34.2173 5.5 24C5.5 13.7827 13.7827 5.5 24 5.5C34.2173 5.5 42.5 13.7827 42.5 24Z" fill="#D2A979" stroke="white"/>
  <path d="M24 14V34M14 24H34" stroke="white" stroke-width="2" stroke-linecap="round"/>
  <path d="M55 18.5H58.5V33H55V18.5ZM60.5 18.5H64L70 27.5V18.5H73.5V33H70L64 24V33H60.5V18.5ZM83.5 33.5C81.8333 33.5 80.3333 33.1667 79 32.5C77.6667 31.8333 76.6667 30.8333 76 29.5C75.3333 28.1667 75 26.6667 75 25C75 23.3333 75.3333 21.8333 76 20.5C76.6667 19.1667 77.6667 18.1667 79 17.5C80.3333 16.8333 81.8333 16.5 83.5 16.5C85.1667 16.5 86.6667 16.8333 88 17.5C89.3333 18.1667 90.3333 19.1667 91 20.5C91.6667 21.8333 92 23.3333 92 25C92 26.6667 91.6667 28.1667 91 29.5C90.3333 30.8333 89.3333 31.8333 88 32.5C86.6667 33.1667 85.1667 33.5 83.5 33.5ZM83.5 30.5C84.5 30.5 85.3333 30.25 86 29.75C86.6667 29.25 87.1667 28.5833 87.5 27.75C87.8333 26.9167 88 26 88 25C88 24 87.8333 23.0833 87.5 22.25C87.1667 21.4167 86.6667 20.75 86 20.25C85.3333 19.75 84.5 19.5 83.5 19.5C82.5 19.5 81.6667 19.75 81 20.25C80.3333 20.75 79.8333 21.4167 79.5 22.25C79.1667 23.0833 79 24 79 25C79 26 79.1667 26.9167 79.5 27.75C79.8333 28.5833 80.3333 29.25 81 29.75C81.6667 30.25 82.5 30.5 83.5 30.5ZM101.5 33.5C99.8333 33.5 98.3333 33.1667 97 32.5C95.6667 31.8333 94.6667 30.8333 94 29.5C93.3333 28.1667 93 26.6667 93 25C93 23.3333 93.3333 21.8333 94 20.5C94.6667 19.1667 95.6667 18.1667 97 17.5C98.3333 16.8333 99.8333 16.5 101.5 16.5C103.5 16.5 105.167 17 106.5 18C107.833 19 108.667 20.3333 109 22H105.5C105.333 21.1667 104.917 20.5 104.25 20C103.583 19.5 102.667 19.25 101.5 19.25C100 19.25 98.8333 19.75 98 20.75C97.1667 21.75 96.75 23.1667 96.75 25C96.75 26.8333 97.1667 28.25 98 29.25C98.8333 30.25 100 30.75 101.5 30.75C102.667 30.75 103.583 30.5 104.25 30C104.917 29.5 105.333 28.8333 105.5 28H109C108.667 29.6667 107.833 31 106.5 32C105.167 33 103.5 33.5 101.5 33.5ZM118.5 33.5C116.833 33.5 115.333 33.1667 114 32.5C112.667 31.8333 111.667 30.8333 111 29.5C110.333 28.1667 110 26.6667 110 25C110 23.3333 110.333 21.8333 111 20.5C111.667 19.1667 112.667 18.1667 114 17.5C115.333 16.8333 116.833 16.5 118.5 16.5C120.167 16.5 121.667 16.8333 123 17.5C124.333 18.1667 125.333 19.1667 126 20.5C126.667 21.8333 127 23.3333 127 25C127 26.6667 126.667 28.1667 126 29.5C125.333 30.8333 124.333 31.8333 123 32.5C121.667 33.1667 120.167 33.5 118.5 33.5ZM118.5 30.5C119.5 30.5 120.333 30.25 121 29.75C121.667 29.25 122.167 28.5833 122.5 27.75C122.833 26.9167 123 26 123 25C123 24 122.833 23.0833 122.5 22.25C122.167 21.4167 121.667 20.75 121 20.25C120.333 19.75 119.5 19.5 118.5 19.5C117.5 19.5 116.667 19.75 116 20.25C115.333 20.75 114.833 21.4167 114.5 22.25C114.167 23.0833 114 24 114 25C114 26 114.167 26.9167 114.5 27.75C114.833 28.5833 115.333 29.25 116 29.75C116.667 30.25 117.5 30.5 118.5 30.5ZM129 18.5H132.5V21.5H129V18.5ZM129 23H132.5V33H129V23ZM142 33.5C140.333 33.5 138.833 33.1667 137.5 32.5C136.167 31.8333 135.167 30.8333 134.5 29.5C133.833 28.1667 133.5 26.6667 133.5 25C133.5 23.3333 133.833 21.8333 134.5 20.5C135.167 19.1667 136.167 18.1667 137.5 17.5C138.833 16.8333 140.333 16.5 142 16.5C144 16.5 145.667 17 147 18C148.333 19 149.167 20.3333 149.5 22H146C145.833 21.1667 145.417 20.5 144.75 20C144.083 19.5 143.167 19.25 142 19.25C140.5 19.25 139.333 19.75 138.5 20.75C137.667 21.75 137.25 23.1667 137.25 25C137.25 26.8333 137.667 28.25 138.5 29.25C139.333 30.25 140.5 30.75 142 30.75C143.167 30.75 144.083 30.5 144.75 30C145.417 29.5 145.833 28.8333 146 28H149.5C149.167 29.6667 148.333 31 147 32C145.667 33 144 33.5 142 33.5ZM151.5 18.5H155V33H151.5V18.5ZM164.5 33.5C163.167 33.5 162 33.25 161 32.75C160 32.25 159.25 31.5 158.75 30.5C158.25 29.5 158 28.3333 158 27V18.5H161.5V26.5C161.5 27.8333 161.833 28.8333 162.5 29.5C163.167 30.1667 164.167 30.5 165.5 30.5C166.833 30.5 167.833 30.1667 168.5 29.5C169.167 28.8333 169.5 27.8333 169.5 26.5V18.5H173V33H169.5V31C169.167 31.6667 168.583 32.25 167.75 32.75C166.917 33.25 165.833 33.5 164.5 33.5Z" fill="white"/>
</svg>